<svg xmlns="http://www.w3.org/2000/svg" version="1.1" xmlns:xlink="http://www.w3.org/1999/xlink" xmlns:svgjs="http://svgjs.dev/svgjs" width="100%" height="100%" viewBox="0 0 1000 600"><rect width="1000" height="600" x="0" y="0" fill="#00214d"/><g><circle r="166.66666666666666" cx="284.97826639811194" cy="307.2005157936841" fill="blue" transform="matrix(1.0565317310301532,0,0,1.0565317310301532,0,-24.567096025196378)"/><path d="M353.2184340593838 232.20051985989676L295.8268682748665 306.9916087085708L353.8451750273894 382.2005248692487L329.58134612317076 382.2005248692487L284.6649100827659 322.0333919407064L283.5904969947562 322.0333919407064L239.33064673035733 382.2005248692487L216.11138610614807 382.2005248692487L273.7118655466672 307.2005223645727L216.11138610614807 232.20051985989676L240.6139734743689 232.20051985989676L284.6649100827659 291.94982547643525L285.7393231707756 291.94982547643525L329.58134612317076 232.20051985989676L353.2184340593838 232.20051985989676Z " fill="#ffffff" transform="matrix(1.0565317310301532,0,0,1.0565317310301532,0,-24.567096025196378)"/><path d="M605.1234316962439 272.039672897238L605.1234316962439 288.575569475691L574.4055028209683 288.575569475691L574.4055028209683 352.5418313289948Q574.4055028209683 361.4276689921492 579.2603479018308 363.54614684561653L579.2603479018308 363.54614684561653Q583.2913404841227 365.2526984497985 589.6467740445246 365.2526984497985Q596.0022076049265 365.2526984497985 603.6228432167046 361.86901854495494L603.6228432167046 361.86901854495494L605.1234316962439 361.86901854495494L605.1234316962439 377.55163932131694Q596.2081707295691 382.20052127753684 586.0571310150383 382.20052127753684L586.0571310150383 382.20052127753684Q555.1038157115997 382.20052127753684 555.1038157115997 354.2483829331768L555.1038157115997 354.2483829331768L555.1038157115997 288.575569475691L534.9782761036605 288.575569475691L534.9782761036605 287.2809441207943L574.4055028209683 248.73641650909786L574.4055028209683 272.039672897238L605.1234316962439 272.039672897238ZM751.0630171573237 232.20051993064487L694.5114277911553 305.9353185527146L751.710329834772 380.0820434240696L727.7597607691835 380.0820434240696L683.5071122745335 320.76466352698554L682.4478733477999 320.76466352698554L638.7836909235575 380.0820434240696L615.921784088223 380.0820434240696L672.679336579034 306.1412816773572L615.921784088223 232.20051993064487L640.0783162784542 232.20051993064487L683.5071122745335 291.1059735784436L684.5663512012673 291.1059735784436L727.7597607691835 232.20051993064487L751.0630171573237 232.20051993064487ZM828.181495684237 272.039672897238L828.181495684237 288.575569475691L797.4635668089613 288.575569475691L797.4635668089613 352.5418313289948Q797.4635668089613 361.4276689921492 802.347835193344 363.54614684561653L802.347835193344 363.54614684561653Q806.378827775636 365.2526984497985 812.7342613360379 365.2526984497985Q819.0896948964398 365.2526984497985 826.710330508218 361.86901854495494L826.710330508218 361.86901854495494L828.181495684237 361.86901854495494L828.181495684237 377.55163932131694Q819.2956580210825 382.20052127753684 809.1151950030314 382.20052127753684L809.1151950030314 382.20052127753684Q778.191303003113 382.20052127753684 778.191303003113 354.2483829331768L778.191303003113 354.2483829331768L778.191303003113 288.575569475691L758.0657633951739 288.575569475691L758.0657633951739 287.2809441207943L797.4635668089613 248.73641650909786L797.4635668089613 272.039672897238L828.181495684237 272.039672897238Z " fill="#ffffff" transform="matrix(1.0565317310301532,0,0,1.0565317310301532,0,-24.567096025196378)"/></g></svg>